<?xml version="1.0" standalone="no"?>
<!DOCTYPE svg PUBLIC "-//W3C//DTD SVG 20010904//EN"
 "http://www.w3.org/TR/2001/REC-SVG-20010904/DTD/svg10.dtd">
<svg version="1.0" xmlns="http://www.w3.org/2000/svg"
 width="256.000000pt" height="256.000000pt" viewBox="0 0 256.000000 256.000000"
 preserveAspectRatio="xMidYMid meet">

<g transform="translate(0.000000,256.000000) scale(0.100000,-0.100000)"
fill="#fff" stroke="none">
<path d="M860 2130 l0 -420 423 -2 422 -3 3 -422 2 -423 420 0 420 0 0 845 0
845 -845 0 -845 0 0 -420z"/>
<path d="M0 1280 l0 -420 425 0 425 0 0 420 0 420 -425 0 -425 0 0 -420z"/>
<path d="M860 425 l0 -425 420 0 420 0 0 425 0 425 -420 0 -420 0 0 -425z"/>
</g>
</svg>
