<?xml version="1.0" encoding="utf-8"?>
<svg version="1.1" xmlns="http://www.w3.org/2000/svg" viewBox="0 0 140 40">
		<g>
				<path fill="#0071CE" d="M102.9,24.8c0,2.5-2,4.5-4.5,4.5s-4.5-2-4.5-4.5c0-2.5,2-4.5,4.5-4.5S102.9,22.3,102.9,24.8z"/>
				<path fill="#0071CE" d="M36.6,8.4c1.2,0,2,0.5,2.4,1.4l6.1,15.8h-3.6l-1.2-3.3h-7.3l-1.2,3.3h-3.5L34.4,9.7
						C34.8,8.8,35.5,8.4,36.6,8.4z M39.4,19.1l-2.4-6.7c-0.1-0.3-0.3-0.3-0.4-0.3c-0.1,0-0.3,0-0.4,0.3l-2.4,6.7H39.4z"/>
				<path fill="#0071CE" d="M47.9,10.3c0,1.2-0.9,2.1-2.1,2.1c-1.2,0-2.1-0.9-2.1-2.1c0-1.2,0.9-2.1,2.1-2.1
						C47,8.2,47.9,9.1,47.9,10.3z"/>
				<path fill="#0071CE" d="M44.2,14.1h3.3v11.5h-3.3V14.1z"/>
				<path fill="#0071CE" d="M61.8,14.1v11.5h-3.3v-1.1c-0.9,0.9-2.1,1.5-3.6,1.5c-2.8,0-5.1-2.4-5.1-6c0-3.7,2.3-6,5.1-6
						c1.4,0,2.7,0.5,3.6,1.5v-1.3H61.8z M58.5,20c0-1.7-1.1-2.9-2.7-2.9c-1.6,0-2.7,1.2-2.7,2.9c0,1.7,1.1,2.9,2.7,2.9
						C57.3,22.9,58.5,21.7,58.5,20z"/>
				<path fill="#0071CE" d="M77.5,14.1v11.5h-3.3v-1.1c-0.9,0.9-2.1,1.5-3.6,1.5c-2.8,0-5.1-2.4-5.1-6c0-3.7,2.3-6,5.1-6
						c1.4,0,2.7,0.5,3.6,1.5v-1.3H77.5z M74.2,20c0-1.7-1.1-2.9-2.7-2.9c-1.6,0-2.7,1.2-2.7,2.9c0,1.7,1.1,2.9,2.7,2.9
						C73.1,22.9,74.2,21.7,74.2,20z"/>
				<path fill="#0071CE" d="M90.5,17.6c-0.9-0.9-1.9-1.4-3.2-1.4c-2.1,0-3.8,1.7-3.8,3.8c0,2.1,1.7,3.8,3.8,3.8
						c1.3,0,2.3-0.5,3.2-1.4v3.6c-1.1,0.6-2.2,0.9-3.3,0.9c-3.9,0-7.1-3.1-7.1-7c0-3.9,3.2-7,7.1-7c1.1,0,2.3,0.3,3.3,0.9V17.6z"/>
				<path fill="#0071CE" d="M111.8,14.1v11.5h-3.3v-1.1c-0.9,0.9-2.1,1.5-3.6,1.5c-2.8,0-5.1-2.4-5.1-6c0-3.7,2.3-6,5.1-6
						c1.4,0,2.7,0.5,3.6,1.5v-1.3H111.8z M108.5,20c0-1.7-1.1-2.9-2.7-2.9c-1.6,0-2.7,1.2-2.7,2.9c0,1.7,1.1,2.9,2.7,2.9
						C107.4,22.9,108.5,21.7,108.5,20z"/>
				<path fill="#0071CE" d="M125,18.8v6.8h-3.3v-6.3c0-1.5-0.9-2.2-2-2.2c-1.3,0-2.3,0.8-2.3,2.7v5.8h-3.3V14.1h3.3v1.1
						c0.7-0.8,1.9-1.5,3.5-1.5C122.7,13.8,125,15.2,125,18.8z"/>
				<path fill="#0071CE" d="M135.6,8.4v17.2h-3.3v-1.1c-0.9,0.9-2.1,1.5-3.6,1.5c-2.8,0-5.1-2.4-5.1-6c0-3.7,2.3-6,5.1-6
						c1.4,0,2.5,0.4,3.3,1.3v-6.9H135.6z M132.3,20c0-1.7-1.1-2.9-2.7-2.9c-1.6,0-2.7,1.2-2.7,2.9c0,1.7,1.1,2.9,2.7,2.9
						C131.1,22.9,132.3,21.7,132.3,20z"/>
				<path fill="#FFC220" d="M13.9,16.4l2.2,0.4c0.3,0.1,0.5,0.3,0.5,0.6v6.1c0,0.3-0.3,0.6-0.6,0.6h-2.1c-0.3,0-0.6-0.3-0.6-0.6v-6.5
						C13.4,16.6,13.6,16.4,13.9,16.4z"/>
				<path fill="#FFC220" d="M20.4,13.2l2.2,0.4c0.3,0.1,0.5,0.3,0.5,0.6v9.3c0,0.3-0.3,0.6-0.6,0.6h-2.1c-0.3,0-0.6-0.3-0.6-0.6v-9.6
						C19.9,13.4,20.1,13.1,20.4,13.2z"/>
				<path fill="#FFC220" d="M26.9,10.7l2.2,0.4c0.3,0.1,0.5,0.3,0.5,0.6v11.8c0,0.3-0.3,0.6-0.6,0.6h-2.1c-0.3,0-0.6-0.3-0.6-0.6V11.2
						C26.4,10.9,26.6,10.7,26.9,10.7z"/>
				<path fill="#FFC220" d="M7.5,19.1l2.2,0.4c0.3,0.1,0.5,0.3,0.5,0.6v3.4c0,0.3-0.3,0.6-0.6,0.6H7.5c-0.3,0-0.6-0.3-0.6-0.6v-3.9
						C7,19.3,7.2,19.1,7.5,19.1z"/>
				<path fill="#FFC220" d="M17.2,20c0,6.3-5.1,11.4-11.4,11.4C2.5,31.4,0,28.9,0,25.7c0-3.2,2.5-5.7,5.7-5.7c3.2,0,5.7,2.5,5.7,5.7
						c0,0.4,0,0.8-0.1,1.2c0.1,0,0.3,0.1,0.4,0.1c3.2,0,5.7-2.5,5.7-5.7c0-3.2-2.5-5.7-5.7-5.7c-0.1,0-0.3,0-0.4,0
						c0.1,0.4,0.1,0.8,0.1,1.2c0,3.2-2.5,5.7-5.7,5.7c-3.2,0-5.7-2.5-5.7-5.7c0-3.2,2.5-5.7,5.7-5.7C12,11.1,17.2,13.7,17.2,20z"/>
		</g>
</svg>
